<?xml version="1.0" encoding="UTF-8"?>
<svg width="57mm" height="39mm" version="1.1" viewBox="0 0 57 39" xmlns="http://www.w3.org/2000/svg"><defs><marker id="Arrow2Lstart" overflow="visible" orient="auto"><path transform="matrix(1.1,0,0,1.1,1.1,0)" d="m8.7 4-11-4 11-4c-1.7 2.4-1.7 5.6-6e-7 8z" fill-rule="evenodd" stroke="#000" stroke-linejoin="round" stroke-width=".62"/></marker></defs><g transform="translate(-130 84)"><path d="m130-74 50 29" fill="none" stroke="#000" stroke-width=".26px"/><circle cx="147" cy="-64" r="2" stop-color="#000000" stroke-width=".079"/><text x="148.57623" y="-56.239159" fill="#000000" font-family="Georgia" font-size="4.6px" stop-color="#000000" stroke-width=".42" text-align="center" text-anchor="middle" style="line-height:6.61458px" xml:space="preserve"><tspan x="148.57623" y="-56.239159" fill="#000000" stroke-width=".42">(x, y)</tspan></text><g fill="none" stroke="#000"><path d="m147-64v-17" stroke-width="1.7"/><path d="m147-65-15 8.5" stroke-width="1.7"/><path d="m147-75c3.6 0 6.9 1.9 8.7 5s1.8 6.9 0.029 10" marker-start="url(#Arrow2Lstart)" stop-color="#000000" stroke-width=".42" style="paint-order:normal"/></g><text x="173.36732" y="-65.747505" fill="#000000" font-family="Georgia" font-size="4.6px" stop-color="#000000" stroke-width=".42" text-align="center" text-anchor="middle" style="line-height:6.61458px" xml:space="preserve"><tspan x="173.36732" y="-65.747505" fill="#000000" stroke-width=".42">chevronAngle</tspan></text><circle cx="147" cy="-81" r="2" stop-color="#000000" stroke-width=".079"/><circle cx="133" cy="-56" r="2" stop-color="#000000" stroke-width=".079"/></g></svg>
