<?xml version="1.0" encoding="UTF-8"?>
<svg width="199" height="199" version="1.1" viewBox="0 0 199 199" xmlns="http://www.w3.org/2000/svg"><defs><marker id="Stop-7" overflow="visible" markerHeight="1" markerWidth="1" orient="auto" preserveAspectRatio="xMidYMid" viewBox="0 0 1 1"><path d="m0 4v-8" fill="none" stroke="context-stroke"/></marker><marker id="Stop-7-7" overflow="visible" markerHeight="1" markerWidth="1" orient="auto" preserveAspectRatio="xMidYMid" viewBox="0 0 1 1"><path d="m0 4v-8" fill="none" stroke="context-stroke"/></marker></defs><path d="m0.021 0.01v199h199l0.36-199zm99-0.01h-98zm99 0h-98zm-197 1h98v98h-98zm99 0h98v98h-98zm-99 99h98v98h-98zm99 0h98v98h-98z"/><g font-family="Georgia" font-size="14px" text-anchor="middle"><text transform="rotate(-.1)" x="176.76053" y="53.929142" fill="#000000" text-align="center" style="line-height:8.81806px" xml:space="preserve"><tspan x="176.76053" y="53.929142" fill="#000000" font-family="Georgia">door</tspan></text><text transform="rotate(-.1)" x="115.65433" y="15.669178" fill="#bd00c2" text-align="center" style="line-height:8.81806px" xml:space="preserve"><tspan x="115.65433" y="15.669178" fill="#bd00c2" font-family="Georgia">doorStart</tspan></text><text transform="rotate(-.1)" x="42.052429" y="38.797997" fill="#0088c2" text-align="center" style="line-height:8.81806px" xml:space="preserve"><tspan x="42.052429" y="38.797997" fill="#0088c2" font-family="Georgia">doorEnd</tspan></text><text transform="rotate(-.1)" x="159.28296" y="26.895075" fill="#e30000" text-align="center" style="line-height:8.81806px" xml:space="preserve"><tspan x="159.28296" y="26.895075" fill="#e30000" font-family="Georgia">offset</tspan></text></g><g fill="none" stroke="#000" stroke-width="1px"><path d="m199 41h-42v17h42"/><path d="m175 57-80 119" stroke-dasharray="1, 1"/><g stroke-dasharray="1,1"><path d="m156 49-61 126"/><path d="m198 75-103 100"/><path d="m142 0.52-47 175"/></g></g><g fill="#090"><circle cx="175" cy="57" r="2.5"/><circle cx="173" cy="99" r="2.5"/><circle cx="147" cy="99" r="2.5"/></g><circle cx="156" cy="49" r="2.5" fill="#009"/><circle cx="198" cy="75" r="2.5" fill="#009"/><circle cx="132" cy="99" r="2.5" fill="#090"/><circle cx="116" cy="99" r="2.5" fill="#090"/><circle cx="95" cy="176" r="10" fill="#f60"/><g fill="none" stroke-width="1px"><path d="m83 0.5v40" marker-end="url(#Stop-7)" marker-start="url(#Stop-7)" stroke="#bd00c2"/><path d="m72 0.5v57" marker-end="url(#Stop-7-7)" marker-start="url(#Stop-7-7)" stroke="#0088c2"/><path d="m156 33h-57" marker-end="url(#Stop-7)" marker-start="url(#Stop-7)" stroke="#e30000"/></g><text x="36.571049" y="11.799476" fill="#e30000" font-family="Georgia" font-size="96px" stroke="#e30000" stroke-dasharray="1, 1" stroke-width="10" text-align="center" text-anchor="middle" style="line-height:25px" xml:space="preserve"><tspan/></text></svg>
