<?xml version="1.0" encoding="UTF-8"?>
<svg width="300" height="240" version="1.1" viewBox="0 0 300 240" xmlns="http://www.w3.org/2000/svg"><defs><marker id="ArrowWide" overflow="visible" markerHeight="1" markerWidth="1" orient="auto-start-reverse" preserveAspectRatio="xMidYMid" viewBox="0 0 1 1"><path transform="rotate(180 .12 0)" d="m3-3-3 3 3 3" fill="none" stroke="context-stroke"/></marker><marker id="ArrowWide-4" overflow="visible" markerHeight="1" markerWidth="1" orient="auto-start-reverse" preserveAspectRatio="xMidYMid" viewBox="0 0 1 1"><path transform="rotate(180 .12 0)" d="m3-3-3 3 3 3" fill="none" stroke="context-stroke"/></marker><marker id="ArrowWide-4-0" overflow="visible" markerHeight="1" markerWidth="1" orient="auto-start-reverse" preserveAspectRatio="xMidYMid" viewBox="0 0 1 1"><path transform="rotate(180 .12 0)" d="m3-3-3 3 3 3" fill="none" stroke="context-stroke"/></marker><marker id="ArrowWide-4-0-2" overflow="visible" markerHeight="1" markerWidth="1" orient="auto-start-reverse" preserveAspectRatio="xMidYMid" viewBox="0 0 1 1"><path transform="rotate(180 .12 0)" d="m3-3-3 3 3 3" fill="none" stroke="context-stroke"/></marker></defs><circle cx="50" cy="123" r="10" fill="#f60"/><path d="m50 123h88" fill="none" marker-end="url(#ArrowWide-4)" stroke="#f60" stroke-width="2"/><path d="m50 123 89-43" fill="none" marker-end="url(#ArrowWide)" stroke="#f00" stroke-width="2"/><g font-family="'Liberation Serif'" font-size="14px" text-anchor="middle"><text x="72.124893" y="175.89281" fill="#009900" stroke="#ff6600" text-align="center" style="line-height:8.81806px" xml:space="preserve"><tspan x="72.124893" y="175.89281"/></text><text x="95.097313" y="136.4968" fill="#ff6600" text-align="center" style="line-height:8.81806px" xml:space="preserve"><tspan x="95.097313" y="136.4968" font-family="Georgia">playerDir</tspan></text><text x="182.27501" y="172.01358" fill="#00c9db" text-align="center" style="line-height:8.81806px" xml:space="preserve"><tspan x="182.27501" y="172.01358" font-family="Georgia">cameraPlane</tspan></text><text x="217.32346" y="106.14653" fill="#84b000" text-align="center" style="line-height:8.81806px" xml:space="preserve"><tspan x="217.32346" y="106.14653" font-family="Georgia">cameraX×cameraPlane</tspan></text><text x="49.69696" y="20.581982" fill="#000000" text-align="center" style="line-height:8.81806px" xml:space="preserve"><tspan x="49.69696" y="20.581982" font-family="Georgia">camera plane</tspan></text><text transform="rotate(-26)" x="37.161274" y="126.92774" fill="#ff0000" text-align="center" style="line-height:8.81806px" xml:space="preserve"><tspan x="37.161274" y="126.92774" font-family="Georgia">rayDir</tspan></text></g><g fill="none"><path d="m50 25v194" stroke="#000" stroke-dasharray="1, 1" stroke-width="1px"/><path d="m140 122v88" marker-end="url(#ArrowWide-4-0)" stroke="#00c9db" stroke-width="2"/><path d="m140 122 0.31-40" marker-end="url(#ArrowWide-4-0-2)" stroke="#84b000" stroke-width="2"/></g></svg>
