<?xml version="1.0" encoding="UTF-8"?>
<svg width="397" height="298" version="1.1" viewBox="0 0 397 298" xmlns="http://www.w3.org/2000/svg"><defs><marker id="Stop" overflow="visible" markerHeight="1" markerWidth="1" orient="auto" preserveAspectRatio="xMidYMid" viewBox="0 0 1 1"><path d="m0 4v-8" fill="none" stroke="context-stroke"/></marker><marker id="ArrowWide" overflow="visible" markerHeight="1" markerWidth="1" orient="auto-start-reverse" preserveAspectRatio="xMidYMid" viewBox="0 0 1 1"><path transform="rotate(180 .12 0)" d="m3-3-3 3 3 3" fill="none" stroke="context-stroke"/></marker><marker id="Stop-9" overflow="visible" markerHeight="1" markerWidth="1" orient="auto" preserveAspectRatio="xMidYMid" viewBox="0 0 1 1"><path d="m0 4v-8" fill="none" stroke="context-stroke"/></marker><marker id="Stop-7" overflow="visible" markerHeight="1" markerWidth="1" orient="auto" preserveAspectRatio="xMidYMid" viewBox="0 0 1 1"><path d="m0 4v-8" fill="none" stroke="context-stroke"/></marker></defs><path d="m0 0v298h397v-298h-397zm0.99 0.99h98v98h-98v-98zm99 0h98v98h-98v-98zm99 0h98v98h-98v-98zm99 0h98v98h-98v-98zm-297 99h98v98h-98v-98zm99 0h98v98h-98v-98zm99 0h98v98h-98v-98zm99 0h98v98h-98v-98zm-297 99h98v98h-98v-98zm99 0h98v98h-98v-98zm99 0h98v98h-98v-98zm99 0h98v98h-98v-98z"/><circle cx="40" cy="240" r="10" fill="#f60"/><g fill="none"><path d="m40 240 356-160" stroke="#000" stroke-dasharray="1, 1" stroke-width="1px"/><path d="m40 240 86-39" marker-end="url(#ArrowWide)" stroke="#f00" stroke-width="2"/><path d="m103 220 98-44" marker-end="url(#Stop)" marker-start="url(#Stop)" stroke="#009"/><path d="m44 247 59-27" marker-end="url(#Stop-7)" marker-start="url(#Stop-7)" stroke="#009"/><path d="m129 191 221-98" marker-end="url(#Stop)" marker-start="url(#Stop)" stroke="#090" stroke-width="1px"/><path d="m37 232 92-41" marker-end="url(#Stop-9)" marker-start="url(#Stop-9)" stroke="#090" stroke-width="1px"/></g><g font-family="'Liberation Serif'" font-size="14px" text-anchor="middle"><text transform="rotate(-25)" x="159.68265" y="225.04575" fill="#009900" text-align="center" style="line-height:8.81806px" xml:space="preserve"><tspan x="159.68265" y="225.04575">deltaDistY</tspan></text><text transform="rotate(-25)" x="-22.430077" y="219.45366" fill="#009900" text-align="center" style="line-height:8.81806px" xml:space="preserve"><tspan x="-22.430077" y="219.45366">sideDistY</tspan></text><text transform="rotate(-25)" x="54.802528" y="256.03934" fill="#000099" text-align="center" style="line-height:8.81806px" xml:space="preserve"><tspan x="54.802528" y="256.03934">deltaDistX</tspan></text><text transform="rotate(-25)" x="-30.708792" y="261.23236" fill="#000099" text-align="center" style="line-height:8.81806px" xml:space="preserve"><tspan x="-30.708792" y="261.23236">sideDistX</tspan></text></g><g fill="#009"><circle cx="100" cy="212" r="2.5"/><circle cx="198" cy="169" r="2.5"/><circle cx="298" cy="125" r="2.5"/></g><circle cx="353" cy="100" r="2.5" fill="#090"/><circle cx="132" cy="198" r="2.5" fill="#090"/></svg>
