<?xml version="1.0" encoding="UTF-8"?>
<svg width="199" height="199" version="1.1" viewBox="0 0 199 199" xmlns="http://www.w3.org/2000/svg"><defs><marker id="ArrowWide" overflow="visible" markerHeight="1" markerWidth="1" orient="auto-start-reverse" preserveAspectRatio="xMidYMid" viewBox="0 0 1 1"><path transform="rotate(180 .12 0)" d="m3-3-3 3 3 3" fill="none" stroke="context-stroke"/></marker><marker id="Stop-7" overflow="visible" markerHeight="1" markerWidth="1" orient="auto" preserveAspectRatio="xMidYMid" viewBox="0 0 1 1"><path d="m0 4v-8" fill="none" stroke="context-stroke"/></marker><marker id="Stop-7-6" overflow="visible" markerHeight="1" markerWidth="1" orient="auto" preserveAspectRatio="xMidYMid" viewBox="0 0 1 1"><path d="m0 4v-8" fill="none" stroke="context-stroke"/></marker><marker id="Stop-7-6-7" overflow="visible" markerHeight="1" markerWidth="1" orient="auto" preserveAspectRatio="xMidYMid" viewBox="0 0 1 1"><path d="m0 4v-8" fill="none" stroke="context-stroke"/></marker><marker id="Stop-7-6-7-8" overflow="visible" markerHeight="1" markerWidth="1" orient="auto" preserveAspectRatio="xMidYMid" viewBox="0 0 1 1"><path d="m0 4v-8" fill="none" stroke="context-stroke"/></marker></defs><path d="m0.021 0.01v199h199l0.36-199zm99-0.01h-98zm99 0h-98zm-197 1h98v98h-98zm99 0h98v98h-98zm-99 99h98v98h-98zm99 0h98v98h-98z"/><circle cx="40" cy="141" r="10" fill="#f60"/><g fill="none"><path d="m40 141 159-72" stroke="#000" stroke-dasharray="1, 1" stroke-width="1px"/><path d="m40 141 86-39" marker-end="url(#ArrowWide)" stroke="#f00" stroke-width="2"/><g><path d="m99 93 33-0.042" marker-end="url(#Stop-7)" marker-start="url(#Stop-7)" stroke="#090"/><path d="m0.51 126 40-0.042" marker-end="url(#Stop-7-6)" marker-start="url(#Stop-7-6)" stroke="#f60"/><path d="m40 156 91-0.042" marker-end="url(#Stop-7-6-7)" marker-start="url(#Stop-7-6-7)" stroke="#f00"/><path d="m0.5 31 99-0.042" marker-end="url(#Stop-7-6-7-8)" marker-start="url(#Stop-7-6-7-8)" stroke="#008daf"/></g></g><g font-family="'Liberation Serif'" font-size="14px" text-anchor="middle"><text transform="rotate(-.1)" x="118.8468" y="85.799637" fill="#009900" text-align="center" style="line-height:8.81806px" xml:space="preserve"><tspan x="118.8468" y="85.799637" fill="#009900">wallX</tspan></text><text transform="rotate(-.1)" x="43.125443" y="44.534546" fill="#008daf" text-align="center" style="line-height:8.81806px" xml:space="preserve"><tspan x="43.125443" y="44.534546" fill="#008daf">mapPosX</tspan></text><text transform="rotate(-.1)" x="37.191849" y="117.31213" fill="#ff6600" text-align="center" style="line-height:8.81806px" xml:space="preserve"><tspan x="37.191849" y="117.31213" fill="#ff6600">playerPosX</tspan></text><text transform="rotate(-.1)" x="98.995461" y="170.75983" fill="#ff0000" text-align="center" style="line-height:8.81806px" xml:space="preserve"><tspan x="98.995461" y="170.75983" fill="#ff0000">perpWallDist×rayDirX</tspan></text></g><circle cx="132" cy="99" r="2.5" fill="#090"/></svg>
